<?xml version="1.0" encoding="UTF-8"?><svg id="Layer_1" xmlns="http://www.w3.org/2000/svg" viewBox="0 0 636.9 636.9"><defs><style>.cls-1{fill:#3f1900;stroke-width:0px;}</style></defs><path class="cls-1" d="m568.04,0H68.86C30.83,0,0,30.83,0,68.86v499.18c0,38.03,30.83,68.86,68.86,68.86h499.18c38.03,0,68.86-30.83,68.86-68.86V68.86c0-38.03-30.83-68.86-68.86-68.86Zm9.02,521.14c0,30.89-25.04,55.92-55.92,55.92H115.76c-30.89,0-55.92-25.04-55.92-55.92V115.76c0-30.89,25.04-55.92,55.92-55.92h405.38c30.89,0,55.92,25.04,55.92,55.92v405.38Z"/><path class="cls-1" d="m309.25,159.21c-87.95,0-159.24,71.3-159.24,159.24s71.3,159.24,159.24,159.24,159.24-71.3,159.24-159.24-71.3-159.24-159.24-159.24Zm0,280.79c-67.13,0-121.54-54.42-121.54-121.54s54.42-121.54,121.54-121.54,121.54,54.42,121.54,121.54-54.42,121.54-121.54,121.54Z"/><circle class="cls-1" cx="505.16" cy="129.72" r="36.66"/></svg>